<svg viewBox="0 0 159 28" fill="none" xmlns="http://www.w3.org/2000/svg">
    <path d="M24.3438 2.28125C24.8125 2.60938 25.0469 3.17188 24.9531 3.73438L21.9531 23.2344C21.9062 23.7031 21.625 24.0781 21.2031 24.3125C20.8281 24.5469 20.3125 24.5938 19.8906 24.4062L14.3125 22.0625L11.0781 25.5312C10.6562 26 10 26.1406 9.4375 25.9062C8.875 25.7188 8.5 25.1562 8.5 24.5V20.6094C8.5 20.4219 8.54688 20.2344 8.6875 20.0938L16.5156 11.5156C16.7969 11.2344 16.7969 10.7656 16.5156 10.4844C16.2344 10.2031 15.7656 10.2031 15.4844 10.4844L5.96875 18.9219L1.79688 16.8594C1.32812 16.625 1 16.1094 1 15.5469C0.953125 15.0312 1.23438 14.5156 1.75 14.2344L22.75 2.23438C23.2188 1.95312 23.875 1.95312 24.3438 2.28125Z"
          fill="#2F3542"/>
    <path d="M35.9297 4.9375H38.5547L43.4883 18.0977L48.4102 4.9375H51.0352L44.5195 22H42.4336L35.9297 4.9375ZM34.7344 4.9375H37.2305L37.6641 16.3281V22H34.7344V4.9375ZM49.7344 4.9375H52.2422V22H49.3008V16.3281L49.7344 4.9375ZM61.043 22.2344C60.1055 22.2344 59.2578 22.082 58.5 21.7773C57.75 21.4648 57.1094 21.0312 56.5781 20.4766C56.0547 19.9219 55.6523 19.2695 55.3711 18.5195C55.0898 17.7695 54.9492 16.9609 54.9492 16.0938V15.625C54.9492 14.6328 55.0938 13.7344 55.3828 12.9297C55.6719 12.125 56.0742 11.4375 56.5898 10.8672C57.1055 10.2891 57.7148 9.84766 58.418 9.54297C59.1211 9.23828 59.8828 9.08594 60.7031 9.08594C61.6094 9.08594 62.4023 9.23828 63.082 9.54297C63.7617 9.84766 64.3242 10.2773 64.7695 10.832C65.2227 11.3789 65.5586 12.0312 65.7773 12.7891C66.0039 13.5469 66.1172 14.3828 66.1172 15.2969V16.5039H56.3203V14.4766H63.3281V14.2539C63.3125 13.7461 63.2109 13.2695 63.0234 12.8242C62.8438 12.3789 62.5664 12.0195 62.1914 11.7461C61.8164 11.4727 61.3164 11.3359 60.6914 11.3359C60.2227 11.3359 59.8047 11.4375 59.4375 11.6406C59.0781 11.8359 58.7773 12.1211 58.5352 12.4961C58.293 12.8711 58.1055 13.3242 57.9727 13.8555C57.8477 14.3789 57.7852 14.9688 57.7852 15.625V16.0938C57.7852 16.6484 57.8594 17.1641 58.0078 17.6406C58.1641 18.1094 58.3906 18.5195 58.6875 18.8711C58.9844 19.2227 59.3438 19.5 59.7656 19.7031C60.1875 19.8984 60.668 19.9961 61.207 19.9961C61.8867 19.9961 62.4922 19.8594 63.0234 19.5859C63.5547 19.3125 64.0156 18.9258 64.4062 18.4258L65.8945 19.8672C65.6211 20.2656 65.2656 20.6484 64.8281 21.0156C64.3906 21.375 63.8555 21.668 63.2227 21.8945C62.5977 22.1211 61.8711 22.2344 61.043 22.2344ZM75.4336 18.5664C75.4336 18.2852 75.3633 18.0312 75.2227 17.8047C75.082 17.5703 74.8125 17.3594 74.4141 17.1719C74.0234 16.9844 73.4453 16.8125 72.6797 16.6562C72.0078 16.5078 71.3906 16.332 70.8281 16.1289C70.2734 15.918 69.7969 15.6641 69.3984 15.3672C69 15.0703 68.6914 14.7188 68.4727 14.3125C68.2539 13.9062 68.1445 13.4375 68.1445 12.9062C68.1445 12.3906 68.2578 11.9023 68.4844 11.4414C68.7109 10.9805 69.0352 10.5742 69.457 10.2227C69.8789 9.87109 70.3906 9.59375 70.9922 9.39062C71.6016 9.1875 72.2812 9.08594 73.0312 9.08594C74.0938 9.08594 75.0039 9.26562 75.7617 9.625C76.5273 9.97656 77.1133 10.457 77.5195 11.0664C77.9258 11.668 78.1289 12.3477 78.1289 13.1055H75.3047C75.3047 12.7695 75.2188 12.457 75.0469 12.168C74.8828 11.8711 74.6328 11.6328 74.2969 11.4531C73.9609 11.2656 73.5391 11.1719 73.0312 11.1719C72.5469 11.1719 72.1445 11.25 71.8242 11.4062C71.5117 11.5547 71.2773 11.75 71.1211 11.9922C70.9727 12.2344 70.8984 12.5 70.8984 12.7891C70.8984 13 70.9375 13.1914 71.0156 13.3633C71.1016 13.5273 71.2422 13.6797 71.4375 13.8203C71.6328 13.9531 71.8984 14.0781 72.2344 14.1953C72.5781 14.3125 73.0078 14.4258 73.5234 14.5352C74.4922 14.7383 75.3242 15 76.0195 15.3203C76.7227 15.6328 77.2617 16.0391 77.6367 16.5391C78.0117 17.0312 78.1992 17.6562 78.1992 18.4141C78.1992 18.9766 78.0781 19.4922 77.8359 19.9609C77.6016 20.4219 77.2578 20.8242 76.8047 21.168C76.3516 21.5039 75.8086 21.7656 75.1758 21.9531C74.5508 22.1406 73.8477 22.2344 73.0664 22.2344C71.918 22.2344 70.9453 22.0312 70.1484 21.625C69.3516 21.2109 68.7461 20.6836 68.332 20.043C67.9258 19.3945 67.7227 18.7227 67.7227 18.0273H70.4531C70.4844 18.5508 70.6289 18.9688 70.8867 19.2812C71.1523 19.5859 71.4805 19.8086 71.8711 19.9492C72.2695 20.082 72.6797 20.1484 73.1016 20.1484C73.6094 20.1484 74.0352 20.082 74.3789 19.9492C74.7227 19.8086 74.9844 19.6211 75.1641 19.3867C75.3438 19.1445 75.4336 18.8711 75.4336 18.5664ZM87.7852 18.5664C87.7852 18.2852 87.7148 18.0312 87.5742 17.8047C87.4336 17.5703 87.1641 17.3594 86.7656 17.1719C86.375 16.9844 85.7969 16.8125 85.0312 16.6562C84.3594 16.5078 83.7422 16.332 83.1797 16.1289C82.625 15.918 82.1484 15.6641 81.75 15.3672C81.3516 15.0703 81.043 14.7188 80.8242 14.3125C80.6055 13.9062 80.4961 13.4375 80.4961 12.9062C80.4961 12.3906 80.6094 11.9023 80.8359 11.4414C81.0625 10.9805 81.3867 10.5742 81.8086 10.2227C82.2305 9.87109 82.7422 9.59375 83.3438 9.39062C83.9531 9.1875 84.6328 9.08594 85.3828 9.08594C86.4453 9.08594 87.3555 9.26562 88.1133 9.625C88.8789 9.97656 89.4648 10.457 89.8711 11.0664C90.2773 11.668 90.4805 12.3477 90.4805 13.1055H87.6562C87.6562 12.7695 87.5703 12.457 87.3984 12.168C87.2344 11.8711 86.9844 11.6328 86.6484 11.4531C86.3125 11.2656 85.8906 11.1719 85.3828 11.1719C84.8984 11.1719 84.4961 11.25 84.1758 11.4062C83.8633 11.5547 83.6289 11.75 83.4727 11.9922C83.3242 12.2344 83.25 12.5 83.25 12.7891C83.25 13 83.2891 13.1914 83.3672 13.3633C83.4531 13.5273 83.5938 13.6797 83.7891 13.8203C83.9844 13.9531 84.25 14.0781 84.5859 14.1953C84.9297 14.3125 85.3594 14.4258 85.875 14.5352C86.8438 14.7383 87.6758 15 88.3711 15.3203C89.0742 15.6328 89.6133 16.0391 89.9883 16.5391C90.3633 17.0312 90.5508 17.6562 90.5508 18.4141C90.5508 18.9766 90.4297 19.4922 90.1875 19.9609C89.9531 20.4219 89.6094 20.8242 89.1562 21.168C88.7031 21.5039 88.1602 21.7656 87.5273 21.9531C86.9023 22.1406 86.1992 22.2344 85.418 22.2344C84.2695 22.2344 83.2969 22.0312 82.5 21.625C81.7031 21.2109 81.0977 20.6836 80.6836 20.043C80.2773 19.3945 80.0742 18.7227 80.0742 18.0273H82.8047C82.8359 18.5508 82.9805 18.9688 83.2383 19.2812C83.5039 19.5859 83.832 19.8086 84.2227 19.9492C84.6211 20.082 85.0312 20.1484 85.4531 20.1484C85.9609 20.1484 86.3867 20.082 86.7305 19.9492C87.0742 19.8086 87.3359 19.6211 87.5156 19.3867C87.6953 19.1445 87.7852 18.8711 87.7852 18.5664ZM100.172 19.457V13.4102C100.172 12.957 100.09 12.5664 99.9258 12.2383C99.7617 11.9102 99.5117 11.6562 99.1758 11.4766C98.8477 11.2969 98.4336 11.207 97.9336 11.207C97.4727 11.207 97.0742 11.2852 96.7383 11.4414C96.4023 11.5977 96.1406 11.8086 95.9531 12.0742C95.7656 12.3398 95.6719 12.6406 95.6719 12.9766H92.8594C92.8594 12.4766 92.9805 11.9922 93.2227 11.5234C93.4648 11.0547 93.8164 10.6367 94.2773 10.2695C94.7383 9.90234 95.2891 9.61328 95.9297 9.40234C96.5703 9.19141 97.2891 9.08594 98.0859 9.08594C99.0391 9.08594 99.8828 9.24609 100.617 9.56641C101.359 9.88672 101.941 10.3711 102.363 11.0195C102.793 11.6602 103.008 12.4648 103.008 13.4336V19.0703C103.008 19.6484 103.047 20.168 103.125 20.6289C103.211 21.082 103.332 21.4766 103.488 21.8125V22H100.594C100.461 21.6953 100.355 21.3086 100.277 20.8398C100.207 20.3633 100.172 19.9023 100.172 19.457ZM100.582 14.2891L100.605 16.0352H98.5781C98.0547 16.0352 97.5938 16.0859 97.1953 16.1875C96.7969 16.2812 96.4648 16.4219 96.1992 16.6094C95.9336 16.7969 95.7344 17.0234 95.6016 17.2891C95.4688 17.5547 95.4023 17.8555 95.4023 18.1914C95.4023 18.5273 95.4805 18.8359 95.6367 19.1172C95.793 19.3906 96.0195 19.6055 96.3164 19.7617C96.6211 19.918 96.9883 19.9961 97.418 19.9961C97.9961 19.9961 98.5 19.8789 98.9297 19.6445C99.3672 19.4023 99.7109 19.1094 99.9609 18.7656C100.211 18.4141 100.344 18.082 100.359 17.7695L101.273 19.0234C101.18 19.3438 101.02 19.6875 100.793 20.0547C100.566 20.4219 100.27 20.7734 99.9023 21.1094C99.543 21.4375 99.1094 21.707 98.6016 21.918C98.1016 22.1289 97.5234 22.2344 96.8672 22.2344C96.0391 22.2344 95.3008 22.0703 94.6523 21.7422C94.0039 21.4062 93.4961 20.957 93.1289 20.3945C92.7617 19.8242 92.5781 19.1797 92.5781 18.4609C92.5781 17.7891 92.7031 17.1953 92.9531 16.6797C93.2109 16.1562 93.5859 15.7188 94.0781 15.3672C94.5781 15.0156 95.1875 14.75 95.9062 14.5703C96.625 14.3828 97.4453 14.2891 98.3672 14.2891H100.582ZM114.082 9.32031H116.648V21.6484C116.648 22.7891 116.406 23.7578 115.922 24.5547C115.438 25.3516 114.762 25.957 113.895 26.3711C113.027 26.793 112.023 27.0039 110.883 27.0039C110.398 27.0039 109.859 26.9336 109.266 26.793C108.68 26.6523 108.109 26.4258 107.555 26.1133C107.008 25.8086 106.551 25.4062 106.184 24.9062L107.508 23.2422C107.961 23.7812 108.461 24.1758 109.008 24.4258C109.555 24.6758 110.129 24.8008 110.73 24.8008C111.379 24.8008 111.93 24.6797 112.383 24.4375C112.844 24.2031 113.199 23.8555 113.449 23.3945C113.699 22.9336 113.824 22.3711 113.824 21.707V12.1914L114.082 9.32031ZM105.469 15.8008V15.5547C105.469 14.5938 105.586 13.7188 105.82 12.9297C106.055 12.1328 106.391 11.4492 106.828 10.8789C107.266 10.3008 107.797 9.85938 108.422 9.55469C109.047 9.24219 109.754 9.08594 110.543 9.08594C111.363 9.08594 112.062 9.23438 112.641 9.53125C113.227 9.82812 113.715 10.2539 114.105 10.8086C114.496 11.3555 114.801 12.0117 115.02 12.7773C115.246 13.5352 115.414 14.3789 115.523 15.3086V16.0938C115.422 17 115.25 17.8281 115.008 18.5781C114.766 19.3281 114.445 19.9766 114.047 20.5234C113.648 21.0703 113.156 21.4922 112.57 21.7891C111.992 22.0859 111.309 22.2344 110.52 22.2344C109.746 22.2344 109.047 22.0742 108.422 21.7539C107.805 21.4336 107.273 20.9844 106.828 20.4062C106.391 19.8281 106.055 19.1484 105.82 18.3672C105.586 17.5781 105.469 16.7227 105.469 15.8008ZM108.293 15.5547V15.8008C108.293 16.3789 108.348 16.918 108.457 17.418C108.574 17.918 108.75 18.3594 108.984 18.7422C109.227 19.1172 109.531 19.4141 109.898 19.6328C110.273 19.8438 110.715 19.9492 111.223 19.9492C111.887 19.9492 112.43 19.8086 112.852 19.5273C113.281 19.2461 113.609 18.8672 113.836 18.3906C114.07 17.9062 114.234 17.3672 114.328 16.7734V14.6523C114.281 14.1914 114.184 13.7617 114.035 13.3633C113.895 12.9648 113.703 12.6172 113.461 12.3203C113.219 12.0156 112.914 11.7812 112.547 11.6172C112.18 11.4453 111.746 11.3594 111.246 11.3594C110.738 11.3594 110.297 11.4688 109.922 11.6875C109.547 11.9062 109.238 12.207 108.996 12.5898C108.762 12.9727 108.586 13.418 108.469 13.9258C108.352 14.4336 108.293 14.9766 108.293 15.5547ZM125.168 22.2344C124.23 22.2344 123.383 22.082 122.625 21.7773C121.875 21.4648 121.234 21.0312 120.703 20.4766C120.18 19.9219 119.777 19.2695 119.496 18.5195C119.215 17.7695 119.074 16.9609 119.074 16.0938V15.625C119.074 14.6328 119.219 13.7344 119.508 12.9297C119.797 12.125 120.199 11.4375 120.715 10.8672C121.23 10.2891 121.84 9.84766 122.543 9.54297C123.246 9.23828 124.008 9.08594 124.828 9.08594C125.734 9.08594 126.527 9.23828 127.207 9.54297C127.887 9.84766 128.449 10.2773 128.895 10.832C129.348 11.3789 129.684 12.0312 129.902 12.7891C130.129 13.5469 130.242 14.3828 130.242 15.2969V16.5039H120.445V14.4766H127.453V14.2539C127.438 13.7461 127.336 13.2695 127.148 12.8242C126.969 12.3789 126.691 12.0195 126.316 11.7461C125.941 11.4727 125.441 11.3359 124.816 11.3359C124.348 11.3359 123.93 11.4375 123.562 11.6406C123.203 11.8359 122.902 12.1211 122.66 12.4961C122.418 12.8711 122.23 13.3242 122.098 13.8555C121.973 14.3789 121.91 14.9688 121.91 15.625V16.0938C121.91 16.6484 121.984 17.1641 122.133 17.6406C122.289 18.1094 122.516 18.5195 122.812 18.8711C123.109 19.2227 123.469 19.5 123.891 19.7031C124.312 19.8984 124.793 19.9961 125.332 19.9961C126.012 19.9961 126.617 19.8594 127.148 19.5859C127.68 19.3125 128.141 18.9258 128.531 18.4258L130.02 19.8672C129.746 20.2656 129.391 20.6484 128.953 21.0156C128.516 21.375 127.98 21.668 127.348 21.8945C126.723 22.1211 125.996 22.2344 125.168 22.2344ZM135.281 11.7344V22H132.457V9.32031H135.152L135.281 11.7344ZM139.16 9.23828L139.137 11.8633C138.965 11.832 138.777 11.8086 138.574 11.793C138.379 11.7773 138.184 11.7695 137.988 11.7695C137.504 11.7695 137.078 11.8398 136.711 11.9805C136.344 12.1133 136.035 12.3086 135.785 12.5664C135.543 12.8164 135.355 13.1211 135.223 13.4805C135.09 13.8398 135.012 14.2422 134.988 14.6875L134.344 14.7344C134.344 13.9375 134.422 13.1992 134.578 12.5195C134.734 11.8398 134.969 11.2422 135.281 10.7266C135.602 10.2109 136 9.80859 136.477 9.51953C136.961 9.23047 137.52 9.08594 138.152 9.08594C138.324 9.08594 138.508 9.10156 138.703 9.13281C138.906 9.16406 139.059 9.19922 139.16 9.23828ZM143.953 9.32031V22H141.117V9.32031H143.953ZM140.93 5.99219C140.93 5.5625 141.07 5.20703 141.352 4.92578C141.641 4.63672 142.039 4.49219 142.547 4.49219C143.047 4.49219 143.441 4.63672 143.73 4.92578C144.02 5.20703 144.164 5.5625 144.164 5.99219C144.164 6.41406 144.02 6.76562 143.73 7.04688C143.441 7.32812 143.047 7.46875 142.547 7.46875C142.039 7.46875 141.641 7.32812 141.352 7.04688C141.07 6.76562 140.93 6.41406 140.93 5.99219ZM152.637 22.2344C151.699 22.2344 150.852 22.082 150.094 21.7773C149.344 21.4648 148.703 21.0312 148.172 20.4766C147.648 19.9219 147.246 19.2695 146.965 18.5195C146.684 17.7695 146.543 16.9609 146.543 16.0938V15.625C146.543 14.6328 146.688 13.7344 146.977 12.9297C147.266 12.125 147.668 11.4375 148.184 10.8672C148.699 10.2891 149.309 9.84766 150.012 9.54297C150.715 9.23828 151.477 9.08594 152.297 9.08594C153.203 9.08594 153.996 9.23828 154.676 9.54297C155.355 9.84766 155.918 10.2773 156.363 10.832C156.816 11.3789 157.152 12.0312 157.371 12.7891C157.598 13.5469 157.711 14.3828 157.711 15.2969V16.5039H147.914V14.4766H154.922V14.2539C154.906 13.7461 154.805 13.2695 154.617 12.8242C154.438 12.3789 154.16 12.0195 153.785 11.7461C153.41 11.4727 152.91 11.3359 152.285 11.3359C151.816 11.3359 151.398 11.4375 151.031 11.6406C150.672 11.8359 150.371 12.1211 150.129 12.4961C149.887 12.8711 149.699 13.3242 149.566 13.8555C149.441 14.3789 149.379 14.9688 149.379 15.625V16.0938C149.379 16.6484 149.453 17.1641 149.602 17.6406C149.758 18.1094 149.984 18.5195 150.281 18.8711C150.578 19.2227 150.938 19.5 151.359 19.7031C151.781 19.8984 152.262 19.9961 152.801 19.9961C153.48 19.9961 154.086 19.8594 154.617 19.5859C155.148 19.3125 155.609 18.9258 156 18.4258L157.488 19.8672C157.215 20.2656 156.859 20.6484 156.422 21.0156C155.984 21.375 155.449 21.668 154.816 21.8945C154.191 22.1211 153.465 22.2344 152.637 22.2344Z"
          fill="#2F3542"/>
</svg>
